HIERARCHY
ROOT hip
{
  OFFSET 0 90.174 2.4664
  CHANNELS 6 Xposition Yposition Zposition Zrotation Xrotation Yrotation
  JOINT abdomen
  {
    OFFSET 0 -1.186 -1.5018
    CHANNELS 6 Xposition Yposition Zposition Zrotation Xrotation Yrotation
    JOINT abdomen2
    {
      OFFSET 0 9.964 0.2134
      CHANNELS 6 Xposition Yposition Zposition Zrotation Xrotation Yrotation
      JOINT chest
      {
        OFFSET 0 13.134 -3.2573
        CHANNELS 6 Xposition Yposition Zposition Zrotation Xrotation Yrotation
        JOINT neck
        {
          OFFSET 0 20.686 -1.6905
          CHANNELS 6 Xposition Yposition Zposition Zrotation Xrotation Yrotation
          JOINT head
          {
            OFFSET 0 7.238 -0.1237
            CHANNELS 6 Xposition Yposition Zposition Zrotation Xrotation Yrotation
            End Site
            {
              OFFSET 0 0 0
            }
          }
        }
        JOINT lCollar
        {
          OFFSET 1.7069 20.075 5.0056
          CHANNELS 6 Xposition Yposition Zposition Zrotation Xrotation Yrotation
          JOINT lShldr
          {
            OFFSET 13.6458 -0.047 -4.849
            CHANNELS 6 Xposition Yposition Zposition Zrotation Xrotation Yrotation
            JOINT lForeArm
            {
              OFFSET 28.3255 -0.9759 2.2888
              CHANNELS 6 Xposition Yposition Zposition Zrotation Xrotation Yrotation
              JOINT lHand
              {
                OFFSET 22.1583 -0.53 10.8316
                CHANNELS 6 Xposition Yposition Zposition Zrotation Xrotation Yrotation
                JOINT lThumb1
                {
                  OFFSET 0.786 0.112 2.5817
                  CHANNELS 6 Xposition Yposition Zposition Zrotation Xrotation Yrotation
                  JOINT lThumb2
                  {
                    OFFSET 0.3601 -0.878 4.2331
                    CHANNELS 6 Xposition Yposition Zposition Zrotation Xrotation Yrotation
                    JOINT lThumb2_End
                    {
                      OFFSET 1.8127 -1.216 2.2227
                      CHANNELS 6 Xposition Yposition Zposition Zrotation Xrotation Yrotation
                      End Site
                      {
                        OFFSET 0.0181 -0.0122 0.0222
                      }
                    }
                  }
                }
                JOINT lCarpal1
                {
                  OFFSET 0.9571 1.114 1.7695
                  CHANNELS 6 Xposition Yposition Zposition Zrotation Xrotation Yrotation
                  JOINT lIndex1
                  {
                    OFFSET 4.1246 0.487 4.1451
                    CHANNELS 6 Xposition Yposition Zposition Zrotation Xrotation Yrotation
                    JOINT lIndex2
                    {
                      OFFSET 3.4052 -1.454 2.7682
                      CHANNELS 6 Xposition Yposition Zposition Zrotation Xrotation Yrotation
                      JOINT lIndex2_End
                      {
                        OFFSET 1.4531 -1.795 1.2713
                        CHANNELS 6 Xposition Yposition Zposition Zrotation Xrotation Yrotation
                        End Site
                        {
                          OFFSET 0.0145 -0.0179 0.0127
                        }
                      }
                    }
                  }
                  JOINT lMid1
                  {
                    OFFSET 5.6954 0.21 2.1184
                    CHANNELS 6 Xposition Yposition Zposition Zrotation Xrotation Yrotation
                    JOINT lMid2
                    {
                      OFFSET 3.9766 -1.54 2.3863
                      CHANNELS 6 Xposition Yposition Zposition Zrotation Xrotation Yrotation
                      JOINT lMid2_End
                      {
                        OFFSET 1.4042 -1.926 1.125
                        CHANNELS 6 Xposition Yposition Zposition Zrotation Xrotation Yrotation
                        End Site
                        {
                          OFFSET 0.014 -0.0193 0.0113
                        }
                      }
                    }
                  }
                }
                JOINT lCarpal2
                {
                  OFFSET 2.0956 0.66 -0.3894
                  CHANNELS 6 Xposition Yposition Zposition Zrotation Xrotation Yrotation
                  JOINT lRing1
                  {
                    OFFSET 5.0395 -0.09 2.4971
                    CHANNELS 6 Xposition Yposition Zposition Zrotation Xrotation Yrotation
                    JOINT lRing2
                    {
                      OFFSET 3.7921 -1.552 1.4806
                      CHANNELS 6 Xposition Yposition Zposition Zrotation Xrotation Yrotation
                      JOINT lRing2_End
                      {
                        OFFSET 1.4655 -1.808 0.9609
                        CHANNELS 6 Xposition Yposition Zposition Zrotation Xrotation Yrotation
                        End Site
                        {
                          OFFSET 0.0147 -0.0181 0.0096
                        }
                      }
                    }
                  }
                  JOINT lPinky1
                  {
                    OFFSET 4.9141 -1.269 0.3591
                    CHANNELS 6 Xposition Yposition Zposition Zrotation Xrotation Yrotation
                    JOINT lPinky2
                    {
                      OFFSET 3.1477 -1.685 0.8462
                      CHANNELS 6 Xposition Yposition Zposition Zrotation Xrotation Yrotation
                      JOINT lPinky2_End
                      {
                        OFFSET 0.8055 -1.585 0.7955
                        CHANNELS 6 Xposition Yposition Zposition Zrotation Xrotation Yrotation
                        End Site
                        {
                          OFFSET 0.0081 -0.0158 0.008
                        }
                      }
                    }
                  }
                }
              }
            }
          }
        }
        JOINT rCollar
        {
          OFFSET -1.7069 20.075 5.0056
          CHANNELS 6 Xposition Yposition Zposition Zrotation Xrotation Yrotation
          JOINT rShldr
          {
            OFFSET -13.6458 -0.047 -4.849
            CHANNELS 6 Xposition Yposition Zposition Zrotation Xrotation Yrotation
            JOINT rForeArm
            {
              OFFSET -28.3255 -0.9759 2.2888
              CHANNELS 6 Xposition Yposition Zposition Zrotation Xrotation Yrotation
              JOINT rHand
              {
                OFFSET -22.1583 -0.53 10.8316
                CHANNELS 6 Xposition Yposition Zposition Zrotation Xrotation Yrotation
                JOINT rThumb1
                {
                  OFFSET -0.786 0.112 2.5817
                  CHANNELS 6 Xposition Yposition Zposition Zrotation Xrotation Yrotation
                  JOINT rThumb2
                  {
                    OFFSET -0.3601 -0.878 4.2331
                    CHANNELS 6 Xposition Yposition Zposition Zrotation Xrotation Yrotation
                    JOINT rThumb2_End
                    {
                      OFFSET -1.8127 -1.216 2.2227
                      CHANNELS 6 Xposition Yposition Zposition Zrotation Xrotation Yrotation
                      End Site
                      {
                        OFFSET -0.0181 -0.0122 0.0222
                      }
                    }
                  }
                }
                JOINT rCarpal1
                {
                  OFFSET -0.9571 1.114 1.7695
                  CHANNELS 6 Xposition Yposition Zposition Zrotation Xrotation Yrotation
                  JOINT rIndex1
                  {
                    OFFSET -4.1246 0.487 4.1451
                    CHANNELS 6 Xposition Yposition Zposition Zrotation Xrotation Yrotation
                    JOINT rIndex2
                    {
                      OFFSET -3.4052 -1.454 2.7682
                      CHANNELS 6 Xposition Yposition Zposition Zrotation Xrotation Yrotation
                      JOINT rIndex2_End
                      {
                        OFFSET -1.4531 -1.795 1.2713
                        CHANNELS 6 Xposition Yposition Zposition Zrotation Xrotation Yrotation
                        End Site
                        {
                          OFFSET -0.0145 -0.018 0.0127
                        }
                      }
                    }
                  }
                  JOINT rMid1
                  {
                    OFFSET -5.6954 0.21 2.1184
                    CHANNELS 6 Xposition Yposition Zposition Zrotation Xrotation Yrotation
                    JOINT rMid2
                    {
                      OFFSET -3.9766 -1.54 2.3863
                      CHANNELS 6 Xposition Yposition Zposition Zrotation Xrotation Yrotation
                      JOINT rMid2_End
                      {
                        OFFSET -1.4042 -1.926 1.125
                        CHANNELS 6 Xposition Yposition Zposition Zrotation Xrotation Yrotation
                        End Site
                        {
                          OFFSET -0.014 -0.0193 0.0113
                        }
                      }
                    }
                  }
                }
                JOINT rCarpal2
                {
                  OFFSET -2.0956 0.66 -0.3894
                  CHANNELS 6 Xposition Yposition Zposition Zrotation Xrotation Yrotation
                  JOINT rRing1
                  {
                    OFFSET -5.0395 -0.09 2.4971
                    CHANNELS 6 Xposition Yposition Zposition Zrotation Xrotation Yrotation
                    JOINT rRing2
                    {
                      OFFSET -3.7921 -1.552 1.4806
                      CHANNELS 6 Xposition Yposition Zposition Zrotation Xrotation Yrotation
                      JOINT rRing2_End
                      {
                        OFFSET -1.4655 -1.808 0.9609
                        CHANNELS 6 Xposition Yposition Zposition Zrotation Xrotation Yrotation
                        End Site
                        {
                          OFFSET -0.0147 -0.0181 0.0096
                        }
                      }
                    }
                  }
                  JOINT rPinky1
                  {
                    OFFSET -4.9141 -1.269 0.3592
                    CHANNELS 6 Xposition Yposition Zposition Zrotation Xrotation Yrotation
                    JOINT rPinky2
                    {
                      OFFSET -3.1477 -1.685 0.8462
                      CHANNELS 6 Xposition Yposition Zposition Zrotation Xrotation Yrotation
                      JOINT rPinky2_End
                      {
                        OFFSET -0.8055 -1.585 0.7955
                        CHANNELS 6 Xposition Yposition Zposition Zrotation Xrotation Yrotation
                        End Site
                        {
                          OFFSET -0.0081 -0.0158 0.008
                        }
                      }
                    }
                  }
                }
              }
            }
          }
        }
      }
    }
  }
  JOINT lThigh
  {
    OFFSET 8.367 -8.2066 0.5982
    CHANNELS 6 Xposition Yposition Zposition Zrotation Xrotation Yrotation
    JOINT lShin
    {
      OFFSET 2.1923 -43.463 -0.4932
      CHANNELS 6 Xposition Yposition Zposition Zrotation Xrotation Yrotation
      JOINT lFoot
      {
        OFFSET 0.7333 -45.8593 -2.6451
        CHANNELS 6 Xposition Yposition Zposition Zrotation Xrotation Yrotation
        End Site
        {
          OFFSET 2.6618 -4.2699 12.3931
        }
      }
    }
  }
  JOINT rThigh
  {
    OFFSET -8.367 -8.2066 0.5982
    CHANNELS 6 Xposition Yposition Zposition Zrotation Xrotation Yrotation
    JOINT rShin
    {
      OFFSET -2.1923 -43.463 -0.4931
      CHANNELS 6 Xposition Yposition Zposition Zrotation Xrotation Yrotation
      JOINT rFoot
      {
        OFFSET -0.7333 -45.8593 -2.6451
        CHANNELS 6 Xposition Yposition Zposition Zrotation Xrotation Yrotation
        End Site
        {
          OFFSET -2.6618 -4.2699 12.3931
        }
      }
    }
  }
}
MOTION
Frames:	4
Frame Time:	0.0333333
0 90.174 2.4664 0 0 -0 0 -1.186 -1.5018 0 0 -0 0 9.964 0.2134 0 0 -0 0 13.134 -3.2573 0 0 -0 0 20.686 -1.6905 0 0 -0 0 7.238 -0.1237 0 0 -0 1.7069 20.075 5.0056 0 0 -0 13.6458 -0.047 -4.849 1.66051 0.0835086 5.75766 28.3255 -0.9759 2.2888 -0.0175111 0.895433 15.7816 22.1583 -0.53 10.8316 7.95139e-016 -1.98785e-016 -0 0.786 0.112 2.5817 5.46658e-016 -3.97569e-016 -0 0.3601 -0.878 4.2331 5.96354e-016 0 -0 1.8127 -1.216 2.2227 3.97569e-016 1.98785e-016 9.54166e-015 0.9571 1.114 1.7695 1.49089e-016 -3.97569e-016 -0 4.1246 0.487 4.1451 6.4605e-016 0 3.18055e-015 3.4052 -1.454 2.7682 5.96354e-016 0 3.18055e-015 1.4531 -1.795 1.2713 8.94531e-016 -1.98785e-016 6.36111e-015 5.6954 0.21 2.1184 6.4605e-016 0 3.18055e-015 3.9766 -1.54 2.3863 5.96354e-016 0 3.18055e-015 1.4042 -1.926 1.125 8.94531e-016 -1.98785e-016 6.36111e-015 2.0956 0.66 -0.3894 1.49089e-016 -3.97569e-016 -0 5.0395 -0.09 2.4971 6.4605e-016 0 3.18055e-015 3.7921 -1.552 1.4806 5.96354e-016 0 3.18055e-015 1.4655 -1.808 0.9609 8.94531e-016 -1.98785e-016 6.36111e-015 4.9141 -1.269 0.3591 6.4605e-016 0 3.18055e-015 3.1477 -1.685 0.8462 5.96354e-016 0 3.18055e-015 0.8055 -1.585 0.7955 8.94531e-016 -1.98785e-016 6.36111e-015 -1.7069 20.075 5.0056 0 0 -0 -13.6458 -0.047 -4.849 -1.4496 0.0636048 -5.0245 -28.3255 -0.9759 2.2888 -1.74811 1.20616 -16.8394 -22.1583 -0.53 10.8316 -1.19271e-015 1.98785e-016 -3.18055e-015 -0.786 0.112 2.5817 -3.97569e-016 1.98785e-016 -3.18055e-015 -0.3601 -0.878 4.2331 -2.98177e-016 1.98785e-016 -3.18055e-015 -1.8127 -1.216 2.2227 -2.98177e-016 3.97569e-016 -0 -0.9571 1.114 1.7695 4.96962e-016 0 -6.36111e-015 -4.1246 0.487 4.1451 -9.93923e-017 3.97569e-016 -0 -3.4052 -1.454 2.7682 -8.94531e-016 5.96354e-016 -0 -1.4531 -1.795 1.2713 -3.97569e-016 3.97569e-016 -0 -5.6954 0.21 2.1184 -9.93923e-017 3.97569e-016 -0 -3.9766 -1.54 2.3863 -8.94531e-016 5.96354e-016 -0 -1.4042 -1.926 1.125 -3.97569e-016 3.97569e-016 -0 -2.0956 0.66 -0.3894 4.96962e-016 0 -6.36111e-015 -5.0395 -0.09 2.4971 -9.93923e-017 3.97569e-016 -0 -3.7921 -1.552 1.4806 -8.94531e-016 5.96354e-016 -0 -1.4655 -1.808 0.9609 -3.97569e-016 3.97569e-016 -0 -4.9141 -1.269 0.3592 -9.93923e-017 3.97569e-016 -0 -3.1477 -1.685 0.8462 -8.94531e-016 5.96354e-016 -0 -0.8055 -1.585 0.7955 -3.97569e-016 3.97569e-016 -0 8.367 -8.2066 0.5982 -4.66115 -1.03232 0.120763 2.1923 -43.463 -0.4932 0.00990601 1.55097 0.177175 0.7333 -45.8593 -2.6451 4.65196 -0.54114 -0.255042 -8.367 -8.2066 0.5982 4.66115 -1.03222 -0.120763 -2.1923 -43.463 -0.4931 -0.00990459 1.5509 -0.177176 -0.7333 -45.8593 -2.6451 -4.65196 -0.541171 0.255041 
0.501658 89.9433 20.7753 -0 0 66.6667 3.55271e-015 -1.186 -1.5018 -0.746051 -0.421693 -0.39481 0 9.964 0.2134 -1.49505 -0.838189 -0.795126 0 13.134 -3.2573 -1.49505 -0.838189 -0.79512 0 20.686 -1.6905 0.00745668 0.171874 7.17075e-005 0 7.238 -0.1237 0.114758 0.0297293 0.0031802 1.7069 20.075 5.0056 -21.006 0.41958 -3.37005 13.6458 -0.047 -4.849 1.72483 -0.253975 6.39971 28.3255 -0.9759 2.2888 -18.1764 -10.8796 -29.7535 22.1583 -0.53 10.8316 -7.92747 7.38595 3.50359 0.786 0.112 2.5817 3.18055e-015 -3.18055e-015 1.59028e-014 0.3601 -0.878 4.2331 4.24242e-006 -7.56484e-007 7.3708e-007 1.8127 -1.216 2.2227 7.90289e-007 1.79122e-006 2.10092e-006 0.9571 1.114 1.7695 3.18055e-015 0 1.27222e-014 4.1246 0.487 4.1451 -1.05934e-030 6.36111e-015 9.54166e-015 3.4052 -1.454 2.7682 4.24242e-006 -7.56484e-007 7.3708e-007 1.4531 -1.795 1.2713 7.90289e-007 1.79122e-006 2.10092e-006 5.6954 0.21 2.1184 -1.05934e-030 6.36111e-015 9.54166e-015 3.9766 -1.54 2.3863 4.24242e-006 -7.56484e-007 7.3708e-007 1.4042 -1.926 1.125 7.90289e-007 1.79122e-006 2.10092e-006 2.0956 0.66 -0.3894 3.18055e-015 0 1.27222e-014 5.0395 -0.09 2.4971 -1.05934e-030 6.36111e-015 9.54166e-015 3.7921 -1.552 1.4806 4.24242e-006 -7.56484e-007 7.3708e-007 1.4655 -1.808 0.9609 7.90289e-007 1.79122e-006 2.10092e-006 4.9141 -1.269 0.3591 -1.05934e-030 6.36111e-015 9.54166e-015 3.1477 -1.685 0.8462 4.24242e-006 -7.56484e-007 7.3708e-007 0.8055 -1.585 0.7955 7.90289e-007 1.79122e-006 2.10092e-006 -1.7069 20.075 5.0056 18.8225 -1.33936 12.4903 -13.6458 -0.047 -4.849 0.0616169 -0.986854 5.66231 -28.3255 -0.9759 2.2888 16.4311 -10.8395 25.0249 -22.1583 -0.53 10.8316 -1.96962 6.65222 8.05188 -0.786 0.112 2.5817 6.96794e-007 4.44549e-007 -2.13228e-007 -0.3601 -0.878 4.2331 6.36111e-015 -1.59028e-015 1.27222e-014 -1.8127 -1.216 2.2227 -6.96794e-007 -4.44549e-007 2.13228e-007 -0.9571 1.114 1.7695 -1.76556e-031 1.59028e-015 6.36111e-015 -4.1246 0.487 4.1451 6.96794e-007 4.44549e-007 -2.13228e-007 -3.4052 -1.454 2.7682 6.36111e-015 -1.59028e-015 1.27222e-014 -1.4531 -1.795 1.2713 -6.96794e-007 -4.44549e-007 2.13228e-007 -5.6954 0.21 2.1184 6.96794e-007 4.44549e-007 -2.13228e-007 -3.9766 -1.54 2.3863 6.36111e-015 -1.59028e-015 1.27222e-014 -1.4042 -1.926 1.125 -6.96794e-007 -4.44549e-007 2.13228e-007 -2.0956 0.66 -0.3894 -1.76556e-031 1.59028e-015 6.36111e-015 -5.0395 -0.09 2.4971 6.96794e-007 4.44549e-007 -2.13228e-007 -3.7921 -1.552 1.4806 6.36111e-015 -1.59028e-015 1.27222e-014 -1.4655 -1.808 0.9609 -6.96794e-007 -4.44549e-007 2.13228e-007 -4.9141 -1.269 0.3592 6.96794e-007 4.44549e-007 -2.13228e-007 -3.1477 -1.685 0.8462 6.36111e-015 -1.59028e-015 1.27222e-014 -0.8055 -1.585 0.7955 -6.96794e-007 -4.44549e-007 2.13228e-007 8.367 -8.2066 0.5982 -4.61256 -4.10509 0.440594 2.1923 -43.463 -0.4932 0.0178053 7.34327 0.114652 0.7333 -45.8593 -2.6451 6.95739 -3.65084 0.597252 -8.367 -8.2066 0.5982 -4.26059 -2.97181 -1.12588 -2.1923 -43.463 -0.4931 0.97171 3.71299 -0.328084 -0.7333 -45.8593 -2.6451 -4.81348 -1.84636 -0.0188213 
-2.58174 89.616 38.1326 -1.91294e-015 4.81516e-015 133.333 0 -1.186 -1.5018 -1.50244 -0.852532 -0.781738 0 9.964 0.2134 -3.01686 -1.68419 -1.58583 0 13.134 -3.2573 -3.01687 -1.68419 -1.58584 -7.10543e-015 20.686 -1.6905 0.0149244 0.343774 0.000249363 0 7.238 -0.1237 0.229513 0.0594586 0.00634408 1.7069 20.075 5.0056 -41.9627 0.834818 -6.7406 13.6458 -0.047 -4.849 1.79687 -0.591341 7.04178 28.3255 -0.9759 2.2888 -44.8415 2.18398 -72.1699 22.1583 -0.53 10.8316 -16.4386 14.8581 7.45025 0.786 0.112 2.5817 -2.83915e-006 2.3928e-007 -1.88971e-006 0.3601 -0.878 4.2331 8.00021e-032 -1.59028e-015 2.88238e-015 1.8127 -1.216 2.2227 -6.11646e-007 2.11324e-007 5.56876e-007 0.9571 1.114 1.7695 -6.36111e-015 -1.98785e-016 -1.39149e-015 4.1246 0.487 4.1451 -2.83915e-006 2.3928e-007 -1.88971e-006 3.4052 -1.454 2.7682 9.62094e-032 -1.78906e-015 3.08116e-015 1.4531 -1.795 1.2713 -6.11646e-007 2.11324e-007 5.56876e-007 5.6954 0.21 2.1184 -2.83915e-006 2.3928e-007 -1.88971e-006 3.9766 -1.54 2.3863 9.62094e-032 -1.78906e-015 3.08116e-015 1.4042 -1.926 1.125 -6.11646e-007 2.11324e-007 5.56876e-007 2.0956 0.66 -0.3894 -6.36111e-015 -1.98785e-016 -1.39149e-015 5.0395 -0.09 2.4971 -2.83915e-006 2.3928e-007 -1.88971e-006 3.7921 -1.552 1.4806 9.62094e-032 -1.78906e-015 3.08116e-015 1.4655 -1.808 0.9609 -6.11646e-007 2.11324e-007 5.56876e-007 4.9141 -1.269 0.3591 -2.83915e-006 2.3928e-007 -1.88971e-006 3.1477 -1.685 0.8462 9.62094e-032 -1.78906e-015 3.08116e-015 0.8055 -1.585 0.7955 -6.11646e-007 2.11324e-007 5.56876e-007 -1.7069 20.075 5.0056 38.2108 -2.48692 24.9989 -13.6458 -0.047 -4.849 1.90747 -1.94827 16.3585 -28.3255 -0.9759 2.2888 44.22 -2.80417 65.8236 -22.1583 -0.53 10.8316 -5.6282 12.1867 16.6531 -0.786 0.112 2.5817 -5.70688e-007 4.77585e-007 4.06024e-007 -0.3601 -0.878 4.2331 -5.70688e-007 4.77585e-007 4.06024e-007 -1.8127 -1.216 2.2227 -1.14138e-006 9.5517e-007 8.12047e-007 -0.9571 1.114 1.7695 3.18055e-015 -8.74653e-015 -1.59028e-015 -4.1246 0.487 4.1451 -5.70688e-007 4.77585e-007 4.06024e-007 -3.4052 -1.454 2.7682 -5.70688e-007 4.77585e-007 4.06024e-007 -1.4531 -1.795 1.2713 -1.14138e-006 9.5517e-007 8.12047e-007 -5.6954 0.21 2.1184 -5.70688e-007 4.77585e-007 4.06024e-007 -3.9766 -1.54 2.3863 -5.70688e-007 4.77585e-007 4.06024e-007 -1.4042 -1.926 1.125 -1.14138e-006 9.5517e-007 8.12047e-007 -2.0956 0.66 -0.3894 3.18055e-015 -8.74653e-015 -1.59028e-015 -5.0395 -0.09 2.4971 -5.70688e-007 4.77585e-007 4.06024e-007 -3.7921 -1.552 1.4806 -5.70688e-007 4.77585e-007 4.06024e-007 -1.4655 -1.808 0.9609 -1.14138e-006 9.5517e-007 8.12047e-007 -4.9141 -1.269 0.3592 -5.70688e-007 4.77585e-007 4.06024e-007 -3.1477 -1.685 0.8462 -5.70688e-007 4.77585e-007 4.06024e-007 -0.8055 -1.585 0.7955 -1.14138e-006 9.5517e-007 8.12047e-007 8.367 -8.2066 0.5982 -4.55082 -7.55861 0.75317 2.1923 -43.463 -0.4932 0.0637967 13.8896 0.0848683 0.7333 -45.8593 -2.6451 9.37982 -7.12221 1.47638 -8.367 -8.2066 0.5982 -13.2906 -5.28973 -2.11576 -2.1923 -43.463 -0.4931 1.96486 6.62475 -0.513403 -0.7333 -45.8593 -2.6451 -4.95864 -3.52285 -0.310611 
-6.11802 89.3739 52.1128 -7.01671e-015 7.01671e-015 180 0 -1.186 -1.5018 -2.03455 -1.15727 -1.04848 4.44089e-016 9.964 0.2134 -4.09116 -2.27637 -2.13804 0 13.134 -3.2573 -4.09116 -2.27637 -2.13804 0 20.686 -1.6905 0.0228119 0.515779 -0.000110786 -3.55271e-015 7.238 -0.1237 0.344455 0.089202 0.00847444 1.7069 20.075 5.0056 -56.6318 1.11009 -9.05669 13.6458 -0.047 -4.849 1.85188 -0.827359 7.49133 28.3255 -0.9759 2.2888 -55.2159 24.7329 -94.4357 22.1583 -0.53 10.8316 -22.8657 20.0808 10.5266 0.786 0.112 2.5817 -0 -1.59028e-015 -0 0.3601 -0.878 4.2331 9.35348e-007 1.51753e-006 5.00181e-007 1.8127 -1.216 2.2227 3.18055e-015 4.77083e-015 -4.77083e-015 0.9571 1.114 1.7695 0 3.18055e-015 -0 4.1246 0.487 4.1451 -1.27222e-014 -3.18055e-015 1.59028e-015 3.4052 -1.454 2.7682 9.35348e-007 1.51753e-006 5.00181e-007 1.4531 -1.795 1.2713 6.36111e-015 6.36111e-015 -4.77083e-015 5.6954 0.21 2.1184 -1.27222e-014 -3.18055e-015 1.59028e-015 3.9766 -1.54 2.3863 9.35348e-007 1.51753e-006 5.00181e-007 1.4042 -1.926 1.125 6.36111e-015 6.36111e-015 -4.77083e-015 2.0956 0.66 -0.3894 0 3.18055e-015 -0 5.0395 -0.09 2.4971 -1.27222e-014 -3.18055e-015 1.59028e-015 3.7921 -1.552 1.4806 9.35348e-007 1.51753e-006 5.00181e-007 1.4655 -1.808 0.9609 6.36111e-015 6.36111e-015 -4.77083e-015 4.9141 -1.269 0.3591 -1.27222e-014 -3.18055e-015 1.59028e-015 3.1477 -1.685 0.8462 9.35348e-007 1.51753e-006 5.00181e-007 0.8055 -1.585 0.7955 6.36111e-015 6.36111e-015 -4.77083e-015 -1.7069 20.075 5.0056 52.0974 -3.06971 33.7366 -13.6458 -0.047 -4.849 3.34384 -2.53629 23.7447 -28.3255 -0.9759 2.2888 58.0353 15.2753 88.3935 -22.1583 -0.53 10.8316 -9.04968 15.2595 23.0423 -0.786 0.112 2.5817 5.56597e-015 0 -5.56597e-015 -0.3601 -0.878 4.2331 -4.21148e-007 8.34915e-007 -1.42354e-006 -1.8127 -1.216 2.2227 -4.77083e-015 -9.54166e-015 2.38542e-015 -0.9571 1.114 1.7695 2.78299e-015 0 -1.59028e-015 -4.1246 0.487 4.1451 1.07344e-014 -3.18055e-015 -7.95139e-016 -3.4052 -1.454 2.7682 -4.21148e-007 8.34915e-007 -1.42354e-006 -1.4531 -1.795 1.2713 2.78299e-015 -6.36111e-015 -0 -5.6954 0.21 2.1184 1.07344e-014 -3.18055e-015 -7.95139e-016 -3.9766 -1.54 2.3863 -4.21148e-007 8.34915e-007 -1.42354e-006 -1.4042 -1.926 1.125 2.78299e-015 -6.36111e-015 -0 -2.0956 0.66 -0.3894 2.78299e-015 0 -1.59028e-015 -5.0395 -0.09 2.4971 1.07344e-014 -3.18055e-015 -7.95139e-016 -3.7921 -1.552 1.4806 -4.21148e-007 8.34915e-007 -1.42354e-006 -1.4655 -1.808 0.9609 2.78299e-015 -6.36111e-015 -0 -4.9141 -1.269 0.3592 1.07344e-014 -3.18055e-015 -7.95139e-016 -3.1477 -1.685 0.8462 -4.21148e-007 8.34915e-007 -1.42354e-006 -0.8055 -1.585 0.7955 2.78299e-015 -6.36111e-015 -0 8.367 -8.2066 0.5982 -4.45232 -9.97161 0.977896 2.1923 -43.463 -0.4932 0.106879 18.4873 0.065995 0.7333 -45.8593 -2.6451 11.1198 -9.52593 2.17899 -8.367 -8.2066 0.5982 -19.6281 -6.90618 -2.81531 -2.1923 -43.463 -0.4931 2.65115 8.66313 -0.637684 -0.7333 -45.8593 -2.6451 -5.08416 -4.70237 -0.52762 
